<svg id="visual" viewBox="0 0 900 600" width="900" height="600" xmlns="http://www.w3.org/2000/svg" xmlns:xlink="http://www.w3.org/1999/xlink" version="1.1"><rect x="0" y="0" width="900" height="600" fill="#162225"></rect><path d="M0 423L18.8 419C37.7 415 75.3 407 112.8 406.7C150.3 406.3 187.7 413.7 225.2 416.8C262.7 420 300.3 419 337.8 419.8C375.3 420.7 412.7 423.3 450.2 422.8C487.7 422.3 525.3 418.7 562.8 413.2C600.3 407.7 637.7 400.3 675.2 401.2C712.7 402 750.3 411 787.8 418.3C825.3 425.7 862.7 431.3 881.3 434.2L900 437L900 601L881.3 601C862.7 601 825.3 601 787.8 601C750.3 601 712.7 601 675.2 601C637.7 601 600.3 601 562.8 601C525.3 601 487.7 601 450.2 601C412.7 601 375.3 601 337.8 601C300.3 601 262.7 601 225.2 601C187.7 601 150.3 601 112.8 601C75.3 601 37.7 601 18.8 601L0 601Z" fill="#142527"></path><path d="M0 456L18.8 460.7C37.7 465.3 75.3 474.7 112.8 480.2C150.3 485.7 187.7 487.3 225.2 484.8C262.7 482.3 300.3 475.7 337.8 475.2C375.3 474.7 412.7 480.3 450.2 482.5C487.7 484.7 525.3 483.3 562.8 478.2C600.3 473 637.7 464 675.2 460C712.7 456 750.3 457 787.8 459.8C825.3 462.7 862.7 467.3 881.3 469.7L900 472L900 601L881.3 601C862.7 601 825.3 601 787.8 601C750.3 601 712.7 601 675.2 601C637.7 601 600.3 601 562.8 601C525.3 601 487.7 601 450.2 601C412.7 601 375.3 601 337.8 601C300.3 601 262.7 601 225.2 601C187.7 601 150.3 601 112.8 601C75.3 601 37.7 601 18.8 601L0 601Z" fill="#386363"></path><path d="M0 551L18.8 547.7C37.7 544.3 75.3 537.7 112.8 539C150.3 540.3 187.7 549.7 225.2 548.3C262.7 547 300.3 535 337.8 530.3C375.3 525.7 412.7 528.3 450.2 529.7C487.7 531 525.3 531 562.8 536.3C600.3 541.7 637.7 552.3 675.2 555.5C712.7 558.7 750.3 554.3 787.8 552.5C825.3 550.7 862.7 551.3 881.3 551.7L900 552L900 601L881.3 601C862.7 601 825.3 601 787.8 601C750.3 601 712.7 601 675.2 601C637.7 601 600.3 601 562.8 601C525.3 601 487.7 601 450.2 601C412.7 601 375.3 601 337.8 601C300.3 601 262.7 601 225.2 601C187.7 601 150.3 601 112.8 601C75.3 601 37.7 601 18.8 601L0 601Z" fill="#64aaa1"></path></svg>