<?xml version="1.0" encoding="UTF-8" standalone="no"?>
<svg
   xmlns:dc="http://purl.org/dc/elements/1.1/"
   xmlns:cc="http://creativecommons.org/ns#"
   xmlns:rdf="http://www.w3.org/1999/02/22-rdf-syntax-ns#"
   xmlns:svg="http://www.w3.org/2000/svg"
   xmlns="http://www.w3.org/2000/svg"
   xmlns:sodipodi="http://sodipodi.sourceforge.net/DTD/sodipodi-0.dtd"
   xmlns:inkscape="http://www.inkscape.org/namespaces/inkscape"
   version="1.1"
   id="svg54"
   width="1500"
   height="1500"
   viewBox="0 0 1500 1500"
   sodipodi:docname="FinalLogoBorder.svg"
   inkscape:version="1.0.2-2 (e86c870879, 2021-01-15)">
  <metadata
     id="metadata60">
    <rdf:RDF>
      <cc:Work
         rdf:about="">
        <dc:format>image/svg+xml</dc:format>
        <dc:type
           rdf:resource="http://purl.org/dc/dcmitype/StillImage" />
        <dc:title></dc:title>
      </cc:Work>
    </rdf:RDF>
  </metadata>
  <defs
     id="defs58" />
  <sodipodi:namedview
     pagecolor="#ffffff"
     bordercolor="#666666"
     borderopacity="1"
     objecttolerance="10"
     gridtolerance="10"
     guidetolerance="10"
     inkscape:pageopacity="0"
     inkscape:pageshadow="2"
     inkscape:window-width="1920"
     inkscape:window-height="1001"
     id="namedview56"
     showgrid="false"
     inkscape:zoom="0.37759502"
     inkscape:cx="811.4476"
     inkscape:cy="649.88978"
     inkscape:window-x="-9"
     inkscape:window-y="-9"
     inkscape:window-maximized="1"
     inkscape:current-layer="g62" />
  <g
     inkscape:groupmode="layer"
     inkscape:label="Image"
     id="g62">
    <path
       style="fill:#000000"
       d="M 433.64317,750.53016 C 260.03943,449.97175 118,203.59675 118,203.03016 118,202.32437 316.97914,202 749.94536,202 h 631.94534 l -17.1953,29.87175 C 1204.7746,509.68582 750.34281,1296.9596 749.89317,1296.9768 c -0.33375,0.013 -142.64625,-245.8882 -316.25,-546.44664 z M 1040.1479,734.73709 1329.7959,232.5 1039.98,232.2483 c -159.39875,-0.13843 -420.58133,-0.13843 -580.40576,0 L 168.98437,232.5 391.07527,617 c 122.14999,211.475 252.69757,437.4875 290.10574,502.25 37.40817,64.7625 68.30829,117.7442 68.66692,117.7371 0.35864,-0.01 130.99364,-226.0196 290.29997,-502.25001 z M 727.49795,1058.75 c -2.95705,-8.4144 -19.25921,-70.49358 -26.92618,-102.53587 L 695,932.92827 V 741.46413 550 h 20 20 v 255 255 h -3.53138 c -1.94227,0 -3.72907,-0.5625 -3.97067,-1.25 z M 765,805.01837 V 550 h 20 20 v 191.46413 191.46414 l -5.57177,23.28586 c -6.44538,26.93696 -15.62193,62.42677 -21.99064,85.04767 -4.71956,16.7634 -5.00777,18.2086 -3.43759,17.2382 0.55,-0.3399 1,-0.2128 1,0.2824 0,0.4952 -2.25,0.98 -5,1.0774 l -5,0.1769 z M 675.0175,836.25 c -3.9939,-17.12568 -15.06775,-59.35513 -23.57238,-89.8918 L 645,723.21639 V 636.6082 550 h 20 20 v 150 150 h -3.38793 -3.38792 z M 815,700 V 550 h 20 20 v 86.6082 86.60819 l -6.44512,23.14181 C 840.05025,776.89487 828.9764,819.12432 824.9825,836.25 L 821.77585,850 H 818.38793 815 Z M 622.65283,645.75 C 618.2866,631.34846 609.43002,608.90005 601.88054,593.09933 L 595,578.69866 V 564.34933 550 h 20 20 v 52.5 52.5 h -4.77139 -4.77138 z M 865,602.5 V 550 h 20 20 v 14.34933 14.34933 l -6.88054,14.40067 c -7.54948,15.80072 -16.40606,38.24913 -20.77229,52.65067 l -2.8044,9.25 H 869.77139 865 Z M 548.5,511.90476 c -3.85,-4.41582 -9.5875,-10.50772 -12.75,-13.53757 -3.1625,-3.02985 -5.75,-6.15195 -5.75,-6.938 C 530,490.1946 559.95559,490 750,490 c 190.04441,0 220,0.1946 220,1.42919 0,0.78605 -2.5875,3.90815 -5.75,6.938 -3.1625,3.02985 -8.9,9.12175 -12.75,13.53757 l -7,8.02875 H 750 555.5 Z M 509,475.35678 c -3.025,-2.4787 -11.9125,-8.7816 -19.75,-14.00644 C 481.4125,456.1255 475,451.43424 475,450.92531 475,450.36047 582.13107,450 750,450 c 176.82316,0 275,0.34598 275,0.96911 0,0.53301 -5.2875,4.41438 -11.75,8.62525 -6.4625,4.21088 -15.46967,10.52478 -20.01594,14.03089 L 984.96813,480 749.73406,479.93176 514.5,479.86351 Z M 456.6112,436.96306 C 421.64833,426.74664 390.19765,414.68563 361.5,400.4889 328.20374,384.01723 306.62072,369.45739 287.39814,350.5 c -18.49996,-18.24474 -29.63828,-35.73719 -34.34523,-53.93834 -2.59372,-10.02959 -2.68227,-15.36641 -0.12211,-7.35936 13.77056,43.06811 89.87952,82.27506 209.35415,107.8472 L 476.0699,400 H 750 1023.9301 l 13.785,-2.9505 c 47.299,-10.12381 88.6752,-22.5837 121.3351,-36.53851 49.0811,-20.9712 79.9099,-45.94717 88.019,-71.30869 2.5602,-8.00705 2.4716,-2.67023 -0.1221,7.35936 -7.6956,29.75775 -34.7172,60.43698 -76.118,86.42113 -13.0585,8.19583 -44.3707,24.01925 -61.3291,30.99228 -16.3905,6.73952 -39.2998,14.75789 -60.2896,21.10168 L 1032.9207,440 749.71036,439.92632 466.5,439.85264 Z M 250.25218,279.5 c 0.0111,-2.2 0.21589,-2.98225 0.45508,-1.73834 0.23919,1.24391 0.23011,3.04391 -0.0202,4 -0.25029,0.95609 -0.446,-0.0617 -0.4349,-2.26166 z m 999.03382,-1 c 0.01,-2.75 0.2017,-3.75631 0.4316,-2.23625 0.2298,1.52006 0.2237,3.77006 -0.014,5 -0.2373,1.22994 -0.4254,-0.0138 -0.4179,-2.76375 z"
       id="path66" />
  </g>
</svg>
