<svg xmlns="http://www.w3.org/2000/svg" fill="#64AAA1" width="1500" height="1500" viewBox="0 0 1500 1500"><path d="M433.6 750.5C260 450 118 203.6 118 203 118 202.3 317 202 749.9 202h631.9l-17.2 29.9C1204.8 509.7 750.3 1297 749.9 1297c-0.3 0-142.6-245.9-316.2-546.4zM1040.1 734.7 1329.8 232.5 1040 232.2c-159.4-0.1-420.6-0.1-580.4 0L169 232.5 391.1 617c122.1 211.5 252.7 437.5 290.1 502.3 37.4 64.8 68.3 117.7 68.7 117.7 0.4 0 131-226 290.3-502.3zM727.5 1058.8c-3-8.4-19.3-70.5-26.9-102.5L695 932.9V741.5 550h20 20v255 255h-3.5c-1.9 0-3.7-0.6-4-1.2zM765 805V550h20 20v191.5 191.5l-5.6 23.3c-6.4 26.9-15.6 62.4-22 85-4.7 16.8-5 18.2-3.4 17.2 0.6-0.3 1-0.2 1 0.3 0 0.5-2.2 1-5 1.1l-5 0.2zM675 836.3c-4-17.1-15.1-59.4-23.6-89.9L645 723.2V636.6 550h20 20v150 150h-3.4-3.4zM815 700V550h20 20v86.6 86.6l-6.4 23.1C840.1 776.9 829 819.1 825 836.3L821.8 850H818.4 815ZM622.7 645.8C618.3 631.3 609.4 608.9 601.9 593.1L595 578.7V564.3 550h20 20v52.5 52.5h-4.8-4.8zM865 602.5V550h20 20v14.3 14.3l-6.9 14.4c-7.5 15.8-16.4 38.2-20.8 52.7l-2.8 9.3H869.8 865ZM548.5 511.9c-3.8-4.4-9.6-10.5-12.7-13.5-3.2-3-5.7-6.2-5.7-6.9C530 490.2 560 490 750 490c190 0 220 0.2 220 1.4 0 0.8-2.6 3.9-5.7 6.9-3.2 3-8.9 9.1-12.7 13.5l-7 8H750 555.5ZM509 475.4c-3-2.5-11.9-8.8-19.7-14C481.4 456.1 475 451.4 475 450.9 475 450.4 582.1 450 750 450c176.8 0 275 0.3 275 1 0 0.5-5.3 4.4-11.7 8.6-6.5 4.2-15.5 10.5-20 14L985 480 749.7 479.9 514.5 479.9ZM456.6 437C421.6 426.7 390.2 414.7 361.5 400.5 328.2 384 306.6 369.5 287.4 350.5c-18.5-18.2-29.6-35.7-34.3-53.9-2.6-10-2.7-15.4-0.1-7.4 13.8 43.1 89.9 82.3 209.4 107.8L476.1 400H750 1023.9l13.8-3c47.3-10.1 88.7-22.6 121.3-36.5 49.1-21 79.9-45.9 88-71.3 2.6-8 2.5-2.7-0.1 7.4-7.7 29.8-34.7 60.4-76.1 86.4-13.1 8.2-44.4 24-61.3 31-16.4 6.7-39.3 14.8-60.3 21.1L1032.9 440 749.7 439.9 466.5 439.9ZM250.3 279.5c0-2.2 0.2-3 0.5-1.7 0.2 1.2 0.2 3 0 4-0.3 1-0.4-0.1-0.4-2.3zm999-1c0-2.7 0.2-3.8 0.4-2.2 0.2 1.5 0.2 3.8 0 5-0.2 1.2-0.4 0-0.4-2.8z"/></svg>